<mxfile host="app.diagrams.net" modified="2024-05-19T10:23:06.043Z" agent="Mozilla/5.0 (Windows NT 10.0; Win64; x64) AppleWebKit/537.36 (KHTML, like Gecko) Chrome/125.0.0.0 Safari/537.36" etag="u0pGF8oofqALAyP5eXxD" version="24.4.4" type="github">
  <diagram name="Page-1" id="ZIiKgUzpu2NFQxbDIykZ">
    <mxGraphModel dx="4830" dy="1736" grid="1" gridSize="10" guides="1" tooltips="1" connect="1" arrows="1" fold="1" page="1" pageScale="1" pageWidth="827" pageHeight="1169" math="0" shadow="0">
      <root>
        <mxCell id="0" />
        <mxCell id="1" parent="0" />
        <mxCell id="WAhiKEp9OXw9OT3PCyFJ-1" value="" style="shape=table;startSize=0;container=1;collapsible=0;childLayout=tableLayout;" parent="1" vertex="1">
          <mxGeometry x="-1000" y="119.59" width="587" height="290.41" as="geometry" />
        </mxCell>
        <mxCell id="WAhiKEp9OXw9OT3PCyFJ-2" value="" style="shape=tableRow;horizontal=0;startSize=0;swimlaneHead=0;swimlaneBody=0;strokeColor=inherit;top=0;left=0;bottom=0;right=0;collapsible=0;dropTarget=0;fillColor=none;points=[[0,0.5],[1,0.5]];portConstraint=eastwest;" parent="WAhiKEp9OXw9OT3PCyFJ-1" vertex="1">
          <mxGeometry width="587" height="98" as="geometry" />
        </mxCell>
        <mxCell id="WAhiKEp9OXw9OT3PCyFJ-3" value="&lt;b&gt;&lt;font style=&quot;font-size: 15px;&quot;&gt;Launch Configuration&lt;/font&gt;&lt;/b&gt;" style="shape=partialRectangle;html=1;whiteSpace=wrap;connectable=0;strokeColor=inherit;overflow=hidden;fillColor=none;top=0;left=0;bottom=0;right=0;pointerEvents=1;" parent="WAhiKEp9OXw9OT3PCyFJ-2" vertex="1">
          <mxGeometry width="148" height="98" as="geometry">
            <mxRectangle width="148" height="98" as="alternateBounds" />
          </mxGeometry>
        </mxCell>
        <mxCell id="WAhiKEp9OXw9OT3PCyFJ-4" value="&lt;b&gt;&lt;font style=&quot;font-size: 15px;&quot;&gt;Instance&lt;/font&gt;&lt;/b&gt;" style="shape=partialRectangle;html=1;whiteSpace=wrap;connectable=0;strokeColor=inherit;overflow=hidden;fillColor=none;top=0;left=0;bottom=0;right=0;pointerEvents=1;" parent="WAhiKEp9OXw9OT3PCyFJ-2" vertex="1">
          <mxGeometry x="148" width="146" height="98" as="geometry">
            <mxRectangle width="146" height="98" as="alternateBounds" />
          </mxGeometry>
        </mxCell>
        <mxCell id="WAhiKEp9OXw9OT3PCyFJ-5" value="&lt;font style=&quot;font-size: 15px;&quot;&gt;&lt;b&gt;Load Balancer Target Group&lt;/b&gt;&lt;/font&gt;" style="shape=partialRectangle;html=1;whiteSpace=wrap;connectable=0;strokeColor=inherit;overflow=hidden;fillColor=none;top=0;left=0;bottom=0;right=0;pointerEvents=1;" parent="WAhiKEp9OXw9OT3PCyFJ-2" vertex="1">
          <mxGeometry x="294" width="147" height="98" as="geometry">
            <mxRectangle width="147" height="98" as="alternateBounds" />
          </mxGeometry>
        </mxCell>
        <mxCell id="WAhiKEp9OXw9OT3PCyFJ-6" value="&lt;b&gt;&lt;font style=&quot;font-size: 15px;&quot;&gt;Scaling Policy&lt;/font&gt;&lt;/b&gt;" style="shape=partialRectangle;html=1;whiteSpace=wrap;connectable=0;strokeColor=inherit;overflow=hidden;fillColor=none;top=0;left=0;bottom=0;right=0;pointerEvents=1;" parent="WAhiKEp9OXw9OT3PCyFJ-2" vertex="1">
          <mxGeometry x="441" width="146" height="98" as="geometry">
            <mxRectangle width="146" height="98" as="alternateBounds" />
          </mxGeometry>
        </mxCell>
        <mxCell id="WAhiKEp9OXw9OT3PCyFJ-7" value="" style="shape=tableRow;horizontal=0;startSize=0;swimlaneHead=0;swimlaneBody=0;strokeColor=inherit;top=0;left=0;bottom=0;right=0;collapsible=0;dropTarget=0;fillColor=none;points=[[0,0.5],[1,0.5]];portConstraint=eastwest;" parent="WAhiKEp9OXw9OT3PCyFJ-1" vertex="1">
          <mxGeometry y="98" width="587" height="192" as="geometry" />
        </mxCell>
        <mxCell id="WAhiKEp9OXw9OT3PCyFJ-8" value="&lt;font style=&quot;font-size: 15px;&quot;&gt;WebConfig - WebServerAMI&lt;/font&gt;" style="shape=partialRectangle;html=1;whiteSpace=wrap;connectable=0;strokeColor=inherit;overflow=hidden;fillColor=none;top=0;left=0;bottom=0;right=0;pointerEvents=1;" parent="WAhiKEp9OXw9OT3PCyFJ-7" vertex="1">
          <mxGeometry width="148" height="192" as="geometry">
            <mxRectangle width="148" height="192" as="alternateBounds" />
          </mxGeometry>
        </mxCell>
        <mxCell id="WAhiKEp9OXw9OT3PCyFJ-9" value="&lt;font style=&quot;font-size: 15px;&quot;&gt;t2.micro&lt;/font&gt;" style="shape=partialRectangle;html=1;whiteSpace=wrap;connectable=0;strokeColor=inherit;overflow=hidden;fillColor=none;top=0;left=0;bottom=0;right=0;pointerEvents=1;" parent="WAhiKEp9OXw9OT3PCyFJ-7" vertex="1">
          <mxGeometry x="148" width="146" height="192" as="geometry">
            <mxRectangle width="146" height="192" as="alternateBounds" />
          </mxGeometry>
        </mxCell>
        <mxCell id="WAhiKEp9OXw9OT3PCyFJ-10" value="&lt;font style=&quot;font-size: 15px;&quot;&gt;WebGroup&lt;/font&gt;" style="shape=partialRectangle;html=1;whiteSpace=wrap;connectable=0;strokeColor=inherit;overflow=hidden;fillColor=none;top=0;left=0;bottom=0;right=0;pointerEvents=1;" parent="WAhiKEp9OXw9OT3PCyFJ-7" vertex="1">
          <mxGeometry x="294" width="147" height="192" as="geometry">
            <mxRectangle width="147" height="192" as="alternateBounds" />
          </mxGeometry>
        </mxCell>
        <mxCell id="WAhiKEp9OXw9OT3PCyFJ-11" value="&lt;font style=&quot;font-size: 15px;&quot;&gt;Desired capacity: 2&lt;/font&gt;&lt;div style=&quot;font-size: 15px;&quot;&gt;&lt;font style=&quot;font-size: 15px;&quot;&gt;&lt;br&gt;&lt;/font&gt;&lt;/div&gt;&lt;div style=&quot;font-size: 15px;&quot;&gt;&lt;font style=&quot;font-size: 15px;&quot;&gt;Minimum capacity: 2&lt;/font&gt;&lt;/div&gt;&lt;div style=&quot;font-size: 15px;&quot;&gt;&lt;font style=&quot;font-size: 15px;&quot;&gt;&lt;br&gt;&lt;/font&gt;&lt;/div&gt;&lt;div style=&quot;font-size: 15px;&quot;&gt;&lt;font style=&quot;font-size: 15px;&quot;&gt;Maximum capacity: 6&lt;/font&gt;&lt;/div&gt;&lt;div style=&quot;font-size: 15px;&quot;&gt;&lt;font style=&quot;font-size: 15px;&quot;&gt;&lt;br&gt;&lt;/font&gt;&lt;/div&gt;&lt;div style=&quot;font-size: 15px;&quot;&gt;&lt;font style=&quot;font-size: 15px;&quot;&gt;Metric type: Average CPU Utilization&lt;/font&gt;&lt;/div&gt;&lt;div style=&quot;font-size: 15px;&quot;&gt;&lt;font style=&quot;font-size: 15px;&quot;&gt;&lt;br&gt;&lt;/font&gt;&lt;/div&gt;&lt;div style=&quot;font-size: 15px;&quot;&gt;&lt;font style=&quot;font-size: 15px;&quot;&gt;Target Value: 60&lt;/font&gt;&lt;/div&gt;" style="shape=partialRectangle;html=1;whiteSpace=wrap;connectable=0;strokeColor=inherit;overflow=hidden;fillColor=none;top=0;left=0;bottom=0;right=0;pointerEvents=1;" parent="WAhiKEp9OXw9OT3PCyFJ-7" vertex="1">
          <mxGeometry x="441" width="146" height="192" as="geometry">
            <mxRectangle width="146" height="192" as="alternateBounds" />
          </mxGeometry>
        </mxCell>
        <mxCell id="WAhiKEp9OXw9OT3PCyFJ-12" value="" style="shape=table;startSize=0;container=1;collapsible=0;childLayout=tableLayout;" parent="1" vertex="1">
          <mxGeometry x="-1000" y="420" width="590" height="220" as="geometry" />
        </mxCell>
        <mxCell id="WAhiKEp9OXw9OT3PCyFJ-13" value="" style="shape=tableRow;horizontal=0;startSize=0;swimlaneHead=0;swimlaneBody=0;strokeColor=inherit;top=0;left=0;bottom=0;right=0;collapsible=0;dropTarget=0;fillColor=none;points=[[0,0.5],[1,0.5]];portConstraint=eastwest;" parent="WAhiKEp9OXw9OT3PCyFJ-12" vertex="1">
          <mxGeometry width="590" height="40" as="geometry" />
        </mxCell>
        <mxCell id="WAhiKEp9OXw9OT3PCyFJ-14" value="&lt;b&gt;&lt;font style=&quot;font-size: 15px;&quot;&gt;Security Group Name&lt;/font&gt;&lt;/b&gt;" style="shape=partialRectangle;html=1;whiteSpace=wrap;connectable=0;strokeColor=inherit;overflow=hidden;fillColor=none;top=0;left=0;bottom=0;right=0;pointerEvents=1;" parent="WAhiKEp9OXw9OT3PCyFJ-13" vertex="1">
          <mxGeometry width="197" height="40" as="geometry">
            <mxRectangle width="197" height="40" as="alternateBounds" />
          </mxGeometry>
        </mxCell>
        <mxCell id="WAhiKEp9OXw9OT3PCyFJ-15" value="&lt;font style=&quot;font-size: 15px;&quot;&gt;&lt;b&gt;Inbound Traffic&lt;/b&gt;&lt;/font&gt;" style="shape=partialRectangle;html=1;whiteSpace=wrap;connectable=0;strokeColor=inherit;overflow=hidden;fillColor=none;top=0;left=0;bottom=0;right=0;pointerEvents=1;" parent="WAhiKEp9OXw9OT3PCyFJ-13" vertex="1">
          <mxGeometry x="197" width="196" height="40" as="geometry">
            <mxRectangle width="196" height="40" as="alternateBounds" />
          </mxGeometry>
        </mxCell>
        <mxCell id="WAhiKEp9OXw9OT3PCyFJ-16" value="&lt;font style=&quot;font-size: 15px;&quot;&gt;&lt;b&gt;Source&lt;/b&gt;&lt;/font&gt;" style="shape=partialRectangle;html=1;whiteSpace=wrap;connectable=0;strokeColor=inherit;overflow=hidden;fillColor=none;top=0;left=0;bottom=0;right=0;pointerEvents=1;" parent="WAhiKEp9OXw9OT3PCyFJ-13" vertex="1">
          <mxGeometry x="393" width="197" height="40" as="geometry">
            <mxRectangle width="197" height="40" as="alternateBounds" />
          </mxGeometry>
        </mxCell>
        <mxCell id="WAhiKEp9OXw9OT3PCyFJ-17" value="" style="shape=tableRow;horizontal=0;startSize=0;swimlaneHead=0;swimlaneBody=0;strokeColor=inherit;top=0;left=0;bottom=0;right=0;collapsible=0;dropTarget=0;fillColor=none;points=[[0,0.5],[1,0.5]];portConstraint=eastwest;" parent="WAhiKEp9OXw9OT3PCyFJ-12" vertex="1">
          <mxGeometry y="40" width="590" height="60" as="geometry" />
        </mxCell>
        <mxCell id="WAhiKEp9OXw9OT3PCyFJ-18" value="&lt;font style=&quot;font-size: 16px;&quot;&gt;Web_SG&lt;/font&gt;" style="shape=partialRectangle;html=1;whiteSpace=wrap;connectable=0;strokeColor=inherit;overflow=hidden;fillColor=none;top=0;left=0;bottom=0;right=0;pointerEvents=1;" parent="WAhiKEp9OXw9OT3PCyFJ-17" vertex="1">
          <mxGeometry width="197" height="60" as="geometry">
            <mxRectangle width="197" height="60" as="alternateBounds" />
          </mxGeometry>
        </mxCell>
        <mxCell id="WAhiKEp9OXw9OT3PCyFJ-19" value="&lt;font style=&quot;font-size: 16px;&quot;&gt;HTTP, SSH&lt;/font&gt;" style="shape=partialRectangle;html=1;whiteSpace=wrap;connectable=0;strokeColor=inherit;overflow=hidden;fillColor=none;top=0;left=0;bottom=0;right=0;pointerEvents=1;" parent="WAhiKEp9OXw9OT3PCyFJ-17" vertex="1">
          <mxGeometry x="197" width="196" height="60" as="geometry">
            <mxRectangle width="196" height="60" as="alternateBounds" />
          </mxGeometry>
        </mxCell>
        <mxCell id="WAhiKEp9OXw9OT3PCyFJ-20" value="&lt;font style=&quot;font-size: 17px;&quot;&gt;0.0.0.0/0&lt;/font&gt;" style="shape=partialRectangle;html=1;whiteSpace=wrap;connectable=0;strokeColor=inherit;overflow=hidden;fillColor=none;top=0;left=0;bottom=0;right=0;pointerEvents=1;" parent="WAhiKEp9OXw9OT3PCyFJ-17" vertex="1">
          <mxGeometry x="393" width="197" height="60" as="geometry">
            <mxRectangle width="197" height="60" as="alternateBounds" />
          </mxGeometry>
        </mxCell>
        <mxCell id="WAhiKEp9OXw9OT3PCyFJ-21" value="" style="shape=tableRow;horizontal=0;startSize=0;swimlaneHead=0;swimlaneBody=0;strokeColor=inherit;top=0;left=0;bottom=0;right=0;collapsible=0;dropTarget=0;fillColor=none;points=[[0,0.5],[1,0.5]];portConstraint=eastwest;" parent="WAhiKEp9OXw9OT3PCyFJ-12" vertex="1">
          <mxGeometry y="100" width="590" height="60" as="geometry" />
        </mxCell>
        <mxCell id="WAhiKEp9OXw9OT3PCyFJ-22" value="&lt;font style=&quot;font-size: 16px;&quot;&gt;DB_SG&lt;/font&gt;" style="shape=partialRectangle;html=1;whiteSpace=wrap;connectable=0;strokeColor=inherit;overflow=hidden;fillColor=none;top=0;left=0;bottom=0;right=0;pointerEvents=1;" parent="WAhiKEp9OXw9OT3PCyFJ-21" vertex="1">
          <mxGeometry width="197" height="60" as="geometry">
            <mxRectangle width="197" height="60" as="alternateBounds" />
          </mxGeometry>
        </mxCell>
        <mxCell id="WAhiKEp9OXw9OT3PCyFJ-23" value="&lt;font style=&quot;font-size: 16px;&quot;&gt;Aurora/MySQL&lt;/font&gt;" style="shape=partialRectangle;html=1;whiteSpace=wrap;connectable=0;strokeColor=inherit;overflow=hidden;fillColor=none;top=0;left=0;bottom=0;right=0;pointerEvents=1;" parent="WAhiKEp9OXw9OT3PCyFJ-21" vertex="1">
          <mxGeometry x="197" width="196" height="60" as="geometry">
            <mxRectangle width="196" height="60" as="alternateBounds" />
          </mxGeometry>
        </mxCell>
        <mxCell id="WAhiKEp9OXw9OT3PCyFJ-24" value="&lt;font style=&quot;font-size: 16px;&quot;&gt;Web_SG&lt;/font&gt;" style="shape=partialRectangle;html=1;whiteSpace=wrap;connectable=0;strokeColor=inherit;overflow=hidden;fillColor=none;top=0;left=0;bottom=0;right=0;pointerEvents=1;" parent="WAhiKEp9OXw9OT3PCyFJ-21" vertex="1">
          <mxGeometry x="393" width="197" height="60" as="geometry">
            <mxRectangle width="197" height="60" as="alternateBounds" />
          </mxGeometry>
        </mxCell>
        <mxCell id="WAhiKEp9OXw9OT3PCyFJ-25" value="" style="shape=tableRow;horizontal=0;startSize=0;swimlaneHead=0;swimlaneBody=0;strokeColor=inherit;top=0;left=0;bottom=0;right=0;collapsible=0;dropTarget=0;fillColor=none;points=[[0,0.5],[1,0.5]];portConstraint=eastwest;" parent="WAhiKEp9OXw9OT3PCyFJ-12" vertex="1">
          <mxGeometry y="160" width="590" height="60" as="geometry" />
        </mxCell>
        <mxCell id="WAhiKEp9OXw9OT3PCyFJ-26" value="&lt;font style=&quot;font-size: 16px;&quot;&gt;Web-Server-Environment-env&lt;/font&gt;" style="shape=partialRectangle;html=1;whiteSpace=wrap;connectable=0;strokeColor=inherit;overflow=hidden;fillColor=none;top=0;left=0;bottom=0;right=0;pointerEvents=1;" parent="WAhiKEp9OXw9OT3PCyFJ-25" vertex="1">
          <mxGeometry width="197" height="60" as="geometry">
            <mxRectangle width="197" height="60" as="alternateBounds" />
          </mxGeometry>
        </mxCell>
        <mxCell id="WAhiKEp9OXw9OT3PCyFJ-27" value="&lt;font style=&quot;font-size: 16px;&quot;&gt;HTTP, SSH&lt;/font&gt;" style="shape=partialRectangle;html=1;whiteSpace=wrap;connectable=0;strokeColor=inherit;overflow=hidden;fillColor=none;top=0;left=0;bottom=0;right=0;pointerEvents=1;" parent="WAhiKEp9OXw9OT3PCyFJ-25" vertex="1">
          <mxGeometry x="197" width="196" height="60" as="geometry">
            <mxRectangle width="196" height="60" as="alternateBounds" />
          </mxGeometry>
        </mxCell>
        <mxCell id="WAhiKEp9OXw9OT3PCyFJ-28" value="&lt;font style=&quot;font-size: 17px;&quot;&gt;0.0.0.0/0&lt;/font&gt;" style="shape=partialRectangle;html=1;whiteSpace=wrap;connectable=0;strokeColor=inherit;overflow=hidden;fillColor=none;top=0;left=0;bottom=0;right=0;pointerEvents=1;" parent="WAhiKEp9OXw9OT3PCyFJ-25" vertex="1">
          <mxGeometry x="393" width="197" height="60" as="geometry">
            <mxRectangle width="197" height="60" as="alternateBounds" />
          </mxGeometry>
        </mxCell>
        <mxCell id="WAhiKEp9OXw9OT3PCyFJ-29" value="" style="shape=table;startSize=0;container=1;collapsible=0;childLayout=tableLayout;" parent="1" vertex="1">
          <mxGeometry x="-1000" y="660" width="1040" height="320" as="geometry" />
        </mxCell>
        <mxCell id="WAhiKEp9OXw9OT3PCyFJ-30" value="" style="shape=tableRow;horizontal=0;startSize=0;swimlaneHead=0;swimlaneBody=0;strokeColor=inherit;top=0;left=0;bottom=0;right=0;collapsible=0;dropTarget=0;fillColor=none;points=[[0,0.5],[1,0.5]];portConstraint=eastwest;" parent="WAhiKEp9OXw9OT3PCyFJ-29" vertex="1">
          <mxGeometry width="1040" height="46" as="geometry" />
        </mxCell>
        <mxCell id="WAhiKEp9OXw9OT3PCyFJ-31" value="&lt;b&gt;&lt;font style=&quot;font-size: 16px;&quot;&gt;Instance Type&lt;/font&gt;&lt;/b&gt;" style="shape=partialRectangle;html=1;whiteSpace=wrap;connectable=0;strokeColor=inherit;overflow=hidden;fillColor=none;top=0;left=0;bottom=0;right=0;pointerEvents=1;" parent="WAhiKEp9OXw9OT3PCyFJ-30" vertex="1">
          <mxGeometry width="207" height="46" as="geometry">
            <mxRectangle width="207" height="46" as="alternateBounds" />
          </mxGeometry>
        </mxCell>
        <mxCell id="WAhiKEp9OXw9OT3PCyFJ-32" value="&lt;font style=&quot;font-size: 16px;&quot;&gt;&lt;b&gt;Instance Name&lt;/b&gt;&lt;/font&gt;" style="shape=partialRectangle;html=1;whiteSpace=wrap;connectable=0;strokeColor=inherit;overflow=hidden;fillColor=none;top=0;left=0;bottom=0;right=0;pointerEvents=1;" parent="WAhiKEp9OXw9OT3PCyFJ-30" vertex="1">
          <mxGeometry x="207" width="209" height="46" as="geometry">
            <mxRectangle width="209" height="46" as="alternateBounds" />
          </mxGeometry>
        </mxCell>
        <mxCell id="WAhiKEp9OXw9OT3PCyFJ-33" value="&lt;b&gt;&lt;font style=&quot;font-size: 16px;&quot;&gt;Elastic Public IP Address&lt;/font&gt;&lt;/b&gt;" style="shape=partialRectangle;html=1;whiteSpace=wrap;connectable=0;strokeColor=inherit;overflow=hidden;fillColor=none;top=0;left=0;bottom=0;right=0;pointerEvents=1;" parent="WAhiKEp9OXw9OT3PCyFJ-30" vertex="1">
          <mxGeometry x="416" width="208" height="46" as="geometry">
            <mxRectangle width="208" height="46" as="alternateBounds" />
          </mxGeometry>
        </mxCell>
        <mxCell id="WAhiKEp9OXw9OT3PCyFJ-34" value="&lt;b&gt;&lt;font style=&quot;font-size: 16px;&quot;&gt;Key Pair&lt;/font&gt;&lt;/b&gt;" style="shape=partialRectangle;html=1;whiteSpace=wrap;connectable=0;strokeColor=inherit;overflow=hidden;fillColor=none;top=0;left=0;bottom=0;right=0;pointerEvents=1;" parent="WAhiKEp9OXw9OT3PCyFJ-30" vertex="1">
          <mxGeometry x="624" width="209" height="46" as="geometry">
            <mxRectangle width="209" height="46" as="alternateBounds" />
          </mxGeometry>
        </mxCell>
        <mxCell id="WAhiKEp9OXw9OT3PCyFJ-35" value="&lt;b&gt;&lt;font style=&quot;font-size: 16px;&quot;&gt;Availability Zone&lt;/font&gt;&lt;/b&gt;" style="shape=partialRectangle;html=1;whiteSpace=wrap;connectable=0;strokeColor=inherit;overflow=hidden;fillColor=none;top=0;left=0;bottom=0;right=0;pointerEvents=1;" parent="WAhiKEp9OXw9OT3PCyFJ-30" vertex="1">
          <mxGeometry x="833" width="207" height="46" as="geometry">
            <mxRectangle width="207" height="46" as="alternateBounds" />
          </mxGeometry>
        </mxCell>
        <mxCell id="WAhiKEp9OXw9OT3PCyFJ-36" value="" style="shape=tableRow;horizontal=0;startSize=0;swimlaneHead=0;swimlaneBody=0;strokeColor=inherit;top=0;left=0;bottom=0;right=0;collapsible=0;dropTarget=0;fillColor=none;points=[[0,0.5],[1,0.5]];portConstraint=eastwest;" parent="WAhiKEp9OXw9OT3PCyFJ-29" vertex="1">
          <mxGeometry y="46" width="1040" height="45" as="geometry" />
        </mxCell>
        <mxCell id="WAhiKEp9OXw9OT3PCyFJ-37" value="&lt;font style=&quot;font-size: 15px;&quot;&gt;EC2 - t2.micro&lt;/font&gt;" style="shape=partialRectangle;html=1;whiteSpace=wrap;connectable=0;strokeColor=inherit;overflow=hidden;fillColor=none;top=0;left=0;bottom=0;right=0;pointerEvents=1;" parent="WAhiKEp9OXw9OT3PCyFJ-36" vertex="1">
          <mxGeometry width="207" height="45" as="geometry">
            <mxRectangle width="207" height="45" as="alternateBounds" />
          </mxGeometry>
        </mxCell>
        <mxCell id="WAhiKEp9OXw9OT3PCyFJ-38" value="&lt;font style=&quot;font-size: 15px;&quot;&gt;s3878023 Web Server&lt;/font&gt;" style="shape=partialRectangle;html=1;whiteSpace=wrap;connectable=0;strokeColor=inherit;overflow=hidden;fillColor=none;top=0;left=0;bottom=0;right=0;pointerEvents=1;" parent="WAhiKEp9OXw9OT3PCyFJ-36" vertex="1">
          <mxGeometry x="207" width="209" height="45" as="geometry">
            <mxRectangle width="209" height="45" as="alternateBounds" />
          </mxGeometry>
        </mxCell>
        <mxCell id="WAhiKEp9OXw9OT3PCyFJ-39" value="&lt;span style=&quot;color: rgb(22, 25, 31); font-family: &amp;quot;Amazon Ember&amp;quot;, &amp;quot;Helvetica Neue&amp;quot;, Roboto, Arial, sans-serif; font-size: 16px; text-align: start; text-wrap: nowrap; background-color: rgb(241, 250, 255);&quot;&gt;54.243.152.232&lt;/span&gt;" style="shape=partialRectangle;html=1;whiteSpace=wrap;connectable=0;strokeColor=inherit;overflow=hidden;fillColor=none;top=0;left=0;bottom=0;right=0;pointerEvents=1;" parent="WAhiKEp9OXw9OT3PCyFJ-36" vertex="1">
          <mxGeometry x="416" width="208" height="45" as="geometry">
            <mxRectangle width="208" height="45" as="alternateBounds" />
          </mxGeometry>
        </mxCell>
        <mxCell id="WAhiKEp9OXw9OT3PCyFJ-40" value="&lt;font style=&quot;font-size: 16px;&quot;&gt;Vockey&lt;/font&gt;" style="shape=partialRectangle;html=1;whiteSpace=wrap;connectable=0;strokeColor=inherit;overflow=hidden;fillColor=none;top=0;left=0;bottom=0;right=0;pointerEvents=1;" parent="WAhiKEp9OXw9OT3PCyFJ-36" vertex="1">
          <mxGeometry x="624" width="209" height="45" as="geometry">
            <mxRectangle width="209" height="45" as="alternateBounds" />
          </mxGeometry>
        </mxCell>
        <mxCell id="WAhiKEp9OXw9OT3PCyFJ-41" value="&lt;font style=&quot;font-size: 16px;&quot;&gt;us-east-1a&lt;/font&gt;" style="shape=partialRectangle;html=1;whiteSpace=wrap;connectable=0;strokeColor=inherit;overflow=hidden;fillColor=none;top=0;left=0;bottom=0;right=0;pointerEvents=1;" parent="WAhiKEp9OXw9OT3PCyFJ-36" vertex="1">
          <mxGeometry x="833" width="207" height="45" as="geometry">
            <mxRectangle width="207" height="45" as="alternateBounds" />
          </mxGeometry>
        </mxCell>
        <mxCell id="WAhiKEp9OXw9OT3PCyFJ-42" value="" style="shape=tableRow;horizontal=0;startSize=0;swimlaneHead=0;swimlaneBody=0;strokeColor=inherit;top=0;left=0;bottom=0;right=0;collapsible=0;dropTarget=0;fillColor=none;points=[[0,0.5],[1,0.5]];portConstraint=eastwest;" parent="WAhiKEp9OXw9OT3PCyFJ-29" vertex="1">
          <mxGeometry y="91" width="1040" height="46" as="geometry" />
        </mxCell>
        <mxCell id="WAhiKEp9OXw9OT3PCyFJ-43" value="&lt;span style=&quot;font-size: 15px;&quot;&gt;EC2 - t2.micro&lt;/span&gt;" style="shape=partialRectangle;html=1;whiteSpace=wrap;connectable=0;strokeColor=inherit;overflow=hidden;fillColor=none;top=0;left=0;bottom=0;right=0;pointerEvents=1;" parent="WAhiKEp9OXw9OT3PCyFJ-42" vertex="1">
          <mxGeometry width="207" height="46" as="geometry">
            <mxRectangle width="207" height="46" as="alternateBounds" />
          </mxGeometry>
        </mxCell>
        <mxCell id="WAhiKEp9OXw9OT3PCyFJ-44" value="&lt;font style=&quot;font-size: 15px;&quot;&gt;Dynamic Website&lt;/font&gt;" style="shape=partialRectangle;html=1;whiteSpace=wrap;connectable=0;strokeColor=inherit;overflow=hidden;fillColor=none;top=0;left=0;bottom=0;right=0;pointerEvents=1;" parent="WAhiKEp9OXw9OT3PCyFJ-42" vertex="1">
          <mxGeometry x="207" width="209" height="46" as="geometry">
            <mxRectangle width="209" height="46" as="alternateBounds" />
          </mxGeometry>
        </mxCell>
        <mxCell id="WAhiKEp9OXw9OT3PCyFJ-45" value="&lt;span style=&quot;text-align: start; white-space: pre;&quot;&gt;&lt;font style=&quot;font-size: 16px;&quot; face=&quot;Helvetica&quot;&gt;34.192.228.120&lt;/font&gt;&lt;/span&gt;" style="shape=partialRectangle;html=1;whiteSpace=wrap;connectable=0;strokeColor=inherit;overflow=hidden;fillColor=none;top=0;left=0;bottom=0;right=0;pointerEvents=1;" parent="WAhiKEp9OXw9OT3PCyFJ-42" vertex="1">
          <mxGeometry x="416" width="208" height="46" as="geometry">
            <mxRectangle width="208" height="46" as="alternateBounds" />
          </mxGeometry>
        </mxCell>
        <mxCell id="WAhiKEp9OXw9OT3PCyFJ-46" value="&lt;span style=&quot;font-size: 16px;&quot;&gt;Vockey&lt;/span&gt;" style="shape=partialRectangle;html=1;whiteSpace=wrap;connectable=0;strokeColor=inherit;overflow=hidden;fillColor=none;top=0;left=0;bottom=0;right=0;pointerEvents=1;" parent="WAhiKEp9OXw9OT3PCyFJ-42" vertex="1">
          <mxGeometry x="624" width="209" height="46" as="geometry">
            <mxRectangle width="209" height="46" as="alternateBounds" />
          </mxGeometry>
        </mxCell>
        <mxCell id="WAhiKEp9OXw9OT3PCyFJ-47" value="&lt;span style=&quot;font-size: 16px;&quot;&gt;us-east-1a&lt;/span&gt;" style="shape=partialRectangle;html=1;whiteSpace=wrap;connectable=0;strokeColor=inherit;overflow=hidden;fillColor=none;top=0;left=0;bottom=0;right=0;pointerEvents=1;" parent="WAhiKEp9OXw9OT3PCyFJ-42" vertex="1">
          <mxGeometry x="833" width="207" height="46" as="geometry">
            <mxRectangle width="207" height="46" as="alternateBounds" />
          </mxGeometry>
        </mxCell>
        <mxCell id="WAhiKEp9OXw9OT3PCyFJ-48" value="" style="shape=tableRow;horizontal=0;startSize=0;swimlaneHead=0;swimlaneBody=0;strokeColor=inherit;top=0;left=0;bottom=0;right=0;collapsible=0;dropTarget=0;fillColor=none;points=[[0,0.5],[1,0.5]];portConstraint=eastwest;" parent="WAhiKEp9OXw9OT3PCyFJ-29" vertex="1">
          <mxGeometry y="137" width="1040" height="46" as="geometry" />
        </mxCell>
        <mxCell id="WAhiKEp9OXw9OT3PCyFJ-49" value="&lt;span style=&quot;font-size: 15px;&quot;&gt;EC2 - t2.micro&lt;/span&gt;" style="shape=partialRectangle;html=1;whiteSpace=wrap;connectable=0;strokeColor=inherit;overflow=hidden;fillColor=none;top=0;left=0;bottom=0;right=0;pointerEvents=1;" parent="WAhiKEp9OXw9OT3PCyFJ-48" vertex="1">
          <mxGeometry width="207" height="46" as="geometry">
            <mxRectangle width="207" height="46" as="alternateBounds" />
          </mxGeometry>
        </mxCell>
        <mxCell id="WAhiKEp9OXw9OT3PCyFJ-50" value="&lt;font style=&quot;font-size: 15px;&quot;&gt;Web-Server-Environment-env&lt;/font&gt;" style="shape=partialRectangle;html=1;whiteSpace=wrap;connectable=0;strokeColor=inherit;overflow=hidden;fillColor=none;top=0;left=0;bottom=0;right=0;pointerEvents=1;" parent="WAhiKEp9OXw9OT3PCyFJ-48" vertex="1">
          <mxGeometry x="207" width="209" height="46" as="geometry">
            <mxRectangle width="209" height="46" as="alternateBounds" />
          </mxGeometry>
        </mxCell>
        <mxCell id="WAhiKEp9OXw9OT3PCyFJ-51" value="&lt;font style=&quot;font-size: 16px;&quot;&gt;AWS Beanstalk&lt;/font&gt;" style="shape=partialRectangle;html=1;whiteSpace=wrap;connectable=0;strokeColor=inherit;overflow=hidden;fillColor=none;top=0;left=0;bottom=0;right=0;pointerEvents=1;" parent="WAhiKEp9OXw9OT3PCyFJ-48" vertex="1">
          <mxGeometry x="416" width="208" height="46" as="geometry">
            <mxRectangle width="208" height="46" as="alternateBounds" />
          </mxGeometry>
        </mxCell>
        <mxCell id="WAhiKEp9OXw9OT3PCyFJ-52" value="&lt;span style=&quot;font-size: 16px;&quot;&gt;Vockey&lt;/span&gt;" style="shape=partialRectangle;html=1;whiteSpace=wrap;connectable=0;strokeColor=inherit;overflow=hidden;fillColor=none;top=0;left=0;bottom=0;right=0;pointerEvents=1;" parent="WAhiKEp9OXw9OT3PCyFJ-48" vertex="1">
          <mxGeometry x="624" width="209" height="46" as="geometry">
            <mxRectangle width="209" height="46" as="alternateBounds" />
          </mxGeometry>
        </mxCell>
        <mxCell id="WAhiKEp9OXw9OT3PCyFJ-53" value="&lt;span style=&quot;font-size: 16px;&quot;&gt;us-east-1b&lt;/span&gt;" style="shape=partialRectangle;html=1;whiteSpace=wrap;connectable=0;strokeColor=inherit;overflow=hidden;fillColor=none;top=0;left=0;bottom=0;right=0;pointerEvents=1;" parent="WAhiKEp9OXw9OT3PCyFJ-48" vertex="1">
          <mxGeometry x="833" width="207" height="46" as="geometry">
            <mxRectangle width="207" height="46" as="alternateBounds" />
          </mxGeometry>
        </mxCell>
        <mxCell id="WAhiKEp9OXw9OT3PCyFJ-54" value="" style="shape=tableRow;horizontal=0;startSize=0;swimlaneHead=0;swimlaneBody=0;strokeColor=inherit;top=0;left=0;bottom=0;right=0;collapsible=0;dropTarget=0;fillColor=none;points=[[0,0.5],[1,0.5]];portConstraint=eastwest;" parent="WAhiKEp9OXw9OT3PCyFJ-29" vertex="1">
          <mxGeometry y="183" width="1040" height="46" as="geometry" />
        </mxCell>
        <mxCell id="WAhiKEp9OXw9OT3PCyFJ-55" value="&lt;span style=&quot;font-size: 15px;&quot;&gt;EC2 - t2.micro&lt;/span&gt;" style="shape=partialRectangle;html=1;whiteSpace=wrap;connectable=0;strokeColor=inherit;overflow=hidden;fillColor=none;top=0;left=0;bottom=0;right=0;pointerEvents=1;" parent="WAhiKEp9OXw9OT3PCyFJ-54" vertex="1">
          <mxGeometry width="207" height="46" as="geometry">
            <mxRectangle width="207" height="46" as="alternateBounds" />
          </mxGeometry>
        </mxCell>
        <mxCell id="WAhiKEp9OXw9OT3PCyFJ-56" value="&lt;font style=&quot;font-size: 15px;&quot;&gt;Auto Scaling Web Instance&lt;/font&gt;" style="shape=partialRectangle;html=1;whiteSpace=wrap;connectable=0;strokeColor=inherit;overflow=hidden;fillColor=none;top=0;left=0;bottom=0;right=0;pointerEvents=1;" parent="WAhiKEp9OXw9OT3PCyFJ-54" vertex="1">
          <mxGeometry x="207" width="209" height="46" as="geometry">
            <mxRectangle width="209" height="46" as="alternateBounds" />
          </mxGeometry>
        </mxCell>
        <mxCell id="WAhiKEp9OXw9OT3PCyFJ-57" value="&lt;font style=&quot;font-size: 16px;&quot;&gt;Auto Scaling Group&lt;/font&gt;" style="shape=partialRectangle;html=1;whiteSpace=wrap;connectable=0;strokeColor=inherit;overflow=hidden;fillColor=none;top=0;left=0;bottom=0;right=0;pointerEvents=1;" parent="WAhiKEp9OXw9OT3PCyFJ-54" vertex="1">
          <mxGeometry x="416" width="208" height="46" as="geometry">
            <mxRectangle width="208" height="46" as="alternateBounds" />
          </mxGeometry>
        </mxCell>
        <mxCell id="WAhiKEp9OXw9OT3PCyFJ-58" value="&lt;span style=&quot;font-size: 16px;&quot;&gt;Vockey&lt;/span&gt;" style="shape=partialRectangle;html=1;whiteSpace=wrap;connectable=0;strokeColor=inherit;overflow=hidden;fillColor=none;top=0;left=0;bottom=0;right=0;pointerEvents=1;" parent="WAhiKEp9OXw9OT3PCyFJ-54" vertex="1">
          <mxGeometry x="624" width="209" height="46" as="geometry">
            <mxRectangle width="209" height="46" as="alternateBounds" />
          </mxGeometry>
        </mxCell>
        <mxCell id="WAhiKEp9OXw9OT3PCyFJ-59" value="&lt;span style=&quot;font-size: 16px;&quot;&gt;us-east-1a&lt;/span&gt;" style="shape=partialRectangle;html=1;whiteSpace=wrap;connectable=0;strokeColor=inherit;overflow=hidden;fillColor=none;top=0;left=0;bottom=0;right=0;pointerEvents=1;" parent="WAhiKEp9OXw9OT3PCyFJ-54" vertex="1">
          <mxGeometry x="833" width="207" height="46" as="geometry">
            <mxRectangle width="207" height="46" as="alternateBounds" />
          </mxGeometry>
        </mxCell>
        <mxCell id="WAhiKEp9OXw9OT3PCyFJ-60" value="" style="shape=tableRow;horizontal=0;startSize=0;swimlaneHead=0;swimlaneBody=0;strokeColor=inherit;top=0;left=0;bottom=0;right=0;collapsible=0;dropTarget=0;fillColor=none;points=[[0,0.5],[1,0.5]];portConstraint=eastwest;" parent="WAhiKEp9OXw9OT3PCyFJ-29" vertex="1">
          <mxGeometry y="229" width="1040" height="45" as="geometry" />
        </mxCell>
        <mxCell id="WAhiKEp9OXw9OT3PCyFJ-61" value="&lt;span style=&quot;font-size: 15px;&quot;&gt;EC2 - t2.micro&lt;/span&gt;" style="shape=partialRectangle;html=1;whiteSpace=wrap;connectable=0;strokeColor=inherit;overflow=hidden;fillColor=none;top=0;left=0;bottom=0;right=0;pointerEvents=1;" parent="WAhiKEp9OXw9OT3PCyFJ-60" vertex="1">
          <mxGeometry width="207" height="45" as="geometry">
            <mxRectangle width="207" height="45" as="alternateBounds" />
          </mxGeometry>
        </mxCell>
        <mxCell id="WAhiKEp9OXw9OT3PCyFJ-62" value="&lt;span style=&quot;font-size: 15px;&quot;&gt;Auto Scaling Web Instance&lt;/span&gt;" style="shape=partialRectangle;html=1;whiteSpace=wrap;connectable=0;strokeColor=inherit;overflow=hidden;fillColor=none;top=0;left=0;bottom=0;right=0;pointerEvents=1;" parent="WAhiKEp9OXw9OT3PCyFJ-60" vertex="1">
          <mxGeometry x="207" width="209" height="45" as="geometry">
            <mxRectangle width="209" height="45" as="alternateBounds" />
          </mxGeometry>
        </mxCell>
        <mxCell id="WAhiKEp9OXw9OT3PCyFJ-63" value="&lt;span style=&quot;font-size: 16px;&quot;&gt;Auto Scaling Group&lt;/span&gt;" style="shape=partialRectangle;html=1;whiteSpace=wrap;connectable=0;strokeColor=inherit;overflow=hidden;fillColor=none;top=0;left=0;bottom=0;right=0;pointerEvents=1;" parent="WAhiKEp9OXw9OT3PCyFJ-60" vertex="1">
          <mxGeometry x="416" width="208" height="45" as="geometry">
            <mxRectangle width="208" height="45" as="alternateBounds" />
          </mxGeometry>
        </mxCell>
        <mxCell id="WAhiKEp9OXw9OT3PCyFJ-64" value="&lt;span style=&quot;font-size: 16px;&quot;&gt;Vockey&lt;/span&gt;" style="shape=partialRectangle;html=1;whiteSpace=wrap;connectable=0;strokeColor=inherit;overflow=hidden;fillColor=none;top=0;left=0;bottom=0;right=0;pointerEvents=1;" parent="WAhiKEp9OXw9OT3PCyFJ-60" vertex="1">
          <mxGeometry x="624" width="209" height="45" as="geometry">
            <mxRectangle width="209" height="45" as="alternateBounds" />
          </mxGeometry>
        </mxCell>
        <mxCell id="WAhiKEp9OXw9OT3PCyFJ-65" value="&lt;span style=&quot;font-size: 16px;&quot;&gt;us-east-1b&lt;/span&gt;" style="shape=partialRectangle;html=1;whiteSpace=wrap;connectable=0;strokeColor=inherit;overflow=hidden;fillColor=none;top=0;left=0;bottom=0;right=0;pointerEvents=1;" parent="WAhiKEp9OXw9OT3PCyFJ-60" vertex="1">
          <mxGeometry x="833" width="207" height="45" as="geometry">
            <mxRectangle width="207" height="45" as="alternateBounds" />
          </mxGeometry>
        </mxCell>
        <mxCell id="WAhiKEp9OXw9OT3PCyFJ-66" value="" style="shape=tableRow;horizontal=0;startSize=0;swimlaneHead=0;swimlaneBody=0;strokeColor=inherit;top=0;left=0;bottom=0;right=0;collapsible=0;dropTarget=0;fillColor=none;points=[[0,0.5],[1,0.5]];portConstraint=eastwest;" parent="WAhiKEp9OXw9OT3PCyFJ-29" vertex="1">
          <mxGeometry y="274" width="1040" height="46" as="geometry" />
        </mxCell>
        <mxCell id="WAhiKEp9OXw9OT3PCyFJ-67" value="&lt;span style=&quot;font-size: 15px;&quot;&gt;DB - db.t3.micro&lt;/span&gt;" style="shape=partialRectangle;html=1;whiteSpace=wrap;connectable=0;strokeColor=inherit;overflow=hidden;fillColor=none;top=0;left=0;bottom=0;right=0;pointerEvents=1;" parent="WAhiKEp9OXw9OT3PCyFJ-66" vertex="1">
          <mxGeometry width="207" height="46" as="geometry">
            <mxRectangle width="207" height="46" as="alternateBounds" />
          </mxGeometry>
        </mxCell>
        <mxCell id="WAhiKEp9OXw9OT3PCyFJ-68" value="&lt;span style=&quot;font-size: 15px;&quot;&gt;web-db&lt;/span&gt;" style="shape=partialRectangle;html=1;whiteSpace=wrap;connectable=0;strokeColor=inherit;overflow=hidden;fillColor=none;top=0;left=0;bottom=0;right=0;pointerEvents=1;" parent="WAhiKEp9OXw9OT3PCyFJ-66" vertex="1">
          <mxGeometry x="207" width="209" height="46" as="geometry">
            <mxRectangle width="209" height="46" as="alternateBounds" />
          </mxGeometry>
        </mxCell>
        <mxCell id="WAhiKEp9OXw9OT3PCyFJ-69" value="&lt;font style=&quot;font-size: 16px;&quot;&gt;web-db.cfwmjqgzzaqt.us-east-1.rds.amazonaws.com&lt;/font&gt;" style="shape=partialRectangle;html=1;whiteSpace=wrap;connectable=0;strokeColor=inherit;overflow=hidden;fillColor=none;top=0;left=0;bottom=0;right=0;pointerEvents=1;" parent="WAhiKEp9OXw9OT3PCyFJ-66" vertex="1">
          <mxGeometry x="416" width="208" height="46" as="geometry">
            <mxRectangle width="208" height="46" as="alternateBounds" />
          </mxGeometry>
        </mxCell>
        <mxCell id="WAhiKEp9OXw9OT3PCyFJ-70" value="&lt;font style=&quot;font-size: 16px;&quot;&gt;No Data&lt;/font&gt;" style="shape=partialRectangle;html=1;whiteSpace=wrap;connectable=0;strokeColor=inherit;overflow=hidden;fillColor=none;top=0;left=0;bottom=0;right=0;pointerEvents=1;" parent="WAhiKEp9OXw9OT3PCyFJ-66" vertex="1">
          <mxGeometry x="624" width="209" height="46" as="geometry">
            <mxRectangle width="209" height="46" as="alternateBounds" />
          </mxGeometry>
        </mxCell>
        <mxCell id="WAhiKEp9OXw9OT3PCyFJ-71" value="&lt;div style=&quot;color: rgb(22, 25, 31); font-family: &amp;quot;Amazon Ember&amp;quot;, &amp;quot;Helvetica Neue&amp;quot;, Roboto, Arial, sans-serif; text-align: start; background-color: rgb(255, 255, 255);&quot; class=&quot;awsui_child_18582_uh010_103&quot;&gt;&lt;font style=&quot;font-size: 18px;&quot;&gt;us-east-1a&lt;/font&gt;&lt;/div&gt;&lt;div style=&quot;color: rgb(22, 25, 31); font-family: &amp;quot;Amazon Ember&amp;quot;, &amp;quot;Helvetica Neue&amp;quot;, Roboto, Arial, sans-serif; font-size: 14px; text-align: start; background-color: rgb(255, 255, 255);&quot; class=&quot;awsui_child_18582_uh010_103&quot;&gt;&lt;div&gt;&lt;/div&gt;&lt;/div&gt;" style="shape=partialRectangle;html=1;whiteSpace=wrap;connectable=0;strokeColor=inherit;overflow=hidden;fillColor=none;top=0;left=0;bottom=0;right=0;pointerEvents=1;" parent="WAhiKEp9OXw9OT3PCyFJ-66" vertex="1">
          <mxGeometry x="833" width="207" height="46" as="geometry">
            <mxRectangle width="207" height="46" as="alternateBounds" />
          </mxGeometry>
        </mxCell>
        <mxCell id="WAhiKEp9OXw9OT3PCyFJ-72" value="" style="rounded=0;whiteSpace=wrap;html=1;fillColor=none;" parent="1" vertex="1">
          <mxGeometry x="-390" y="119.59183673469389" width="430" height="520.4081632653061" as="geometry" />
        </mxCell>
        <mxCell id="WAhiKEp9OXw9OT3PCyFJ-73" value="" style="group;fontSize=16;" parent="1" vertex="1" connectable="0">
          <mxGeometry x="-350" y="159.56521739130434" width="350" height="465.65217391304344" as="geometry" />
        </mxCell>
        <mxCell id="WAhiKEp9OXw9OT3PCyFJ-74" value="" style="shape=table;startSize=0;container=1;collapsible=0;childLayout=tableLayout;fontSize=16;" parent="WAhiKEp9OXw9OT3PCyFJ-73" vertex="1">
          <mxGeometry width="350" height="140.43478260869563" as="geometry" />
        </mxCell>
        <mxCell id="WAhiKEp9OXw9OT3PCyFJ-75" value="" style="shape=tableRow;horizontal=0;startSize=0;swimlaneHead=0;swimlaneBody=0;strokeColor=inherit;top=0;left=0;bottom=0;right=0;collapsible=0;dropTarget=0;fillColor=none;points=[[0,0.5],[1,0.5]];portConstraint=eastwest;fontSize=16;" parent="WAhiKEp9OXw9OT3PCyFJ-74" vertex="1">
          <mxGeometry width="350" height="46" as="geometry" />
        </mxCell>
        <mxCell id="WAhiKEp9OXw9OT3PCyFJ-76" value="&lt;b style=&quot;font-size: 16px;&quot;&gt;&lt;font style=&quot;font-size: 16px;&quot;&gt;Destination&lt;/font&gt;&lt;/b&gt;" style="shape=partialRectangle;html=1;whiteSpace=wrap;connectable=0;strokeColor=inherit;overflow=hidden;fillColor=none;top=0;left=0;bottom=0;right=0;pointerEvents=1;fontSize=16;" parent="WAhiKEp9OXw9OT3PCyFJ-75" vertex="1">
          <mxGeometry width="180" height="46" as="geometry">
            <mxRectangle width="180" height="46" as="alternateBounds" />
          </mxGeometry>
        </mxCell>
        <mxCell id="WAhiKEp9OXw9OT3PCyFJ-77" value="&lt;b style=&quot;font-size: 16px;&quot;&gt;&lt;font style=&quot;font-size: 16px;&quot;&gt;Target&lt;/font&gt;&lt;/b&gt;" style="shape=partialRectangle;html=1;whiteSpace=wrap;connectable=0;strokeColor=inherit;overflow=hidden;fillColor=none;top=0;left=0;bottom=0;right=0;pointerEvents=1;fontSize=16;" parent="WAhiKEp9OXw9OT3PCyFJ-75" vertex="1">
          <mxGeometry x="180" width="170" height="46" as="geometry">
            <mxRectangle width="170" height="46" as="alternateBounds" />
          </mxGeometry>
        </mxCell>
        <mxCell id="WAhiKEp9OXw9OT3PCyFJ-78" value="" style="shape=tableRow;horizontal=0;startSize=0;swimlaneHead=0;swimlaneBody=0;strokeColor=inherit;top=0;left=0;bottom=0;right=0;collapsible=0;dropTarget=0;fillColor=none;points=[[0,0.5],[1,0.5]];portConstraint=eastwest;fontSize=16;" parent="WAhiKEp9OXw9OT3PCyFJ-74" vertex="1">
          <mxGeometry y="46" width="350" height="48" as="geometry" />
        </mxCell>
        <mxCell id="WAhiKEp9OXw9OT3PCyFJ-79" value="0.0.0.0/0" style="shape=partialRectangle;html=1;whiteSpace=wrap;connectable=0;strokeColor=inherit;overflow=hidden;fillColor=none;top=0;left=0;bottom=0;right=0;pointerEvents=1;fontSize=16;" parent="WAhiKEp9OXw9OT3PCyFJ-78" vertex="1">
          <mxGeometry width="180" height="48" as="geometry">
            <mxRectangle width="180" height="48" as="alternateBounds" />
          </mxGeometry>
        </mxCell>
        <mxCell id="WAhiKEp9OXw9OT3PCyFJ-80" value="s3878023-igw&lt;div style=&quot;font-size: 16px;&quot;&gt;(The Internet Gateway)&lt;/div&gt;" style="shape=partialRectangle;html=1;whiteSpace=wrap;connectable=0;strokeColor=inherit;overflow=hidden;fillColor=none;top=0;left=0;bottom=0;right=0;pointerEvents=1;fontSize=16;" parent="WAhiKEp9OXw9OT3PCyFJ-78" vertex="1">
          <mxGeometry x="180" width="170" height="48" as="geometry">
            <mxRectangle width="170" height="48" as="alternateBounds" />
          </mxGeometry>
        </mxCell>
        <mxCell id="WAhiKEp9OXw9OT3PCyFJ-81" value="" style="shape=tableRow;horizontal=0;startSize=0;swimlaneHead=0;swimlaneBody=0;strokeColor=inherit;top=0;left=0;bottom=0;right=0;collapsible=0;dropTarget=0;fillColor=none;points=[[0,0.5],[1,0.5]];portConstraint=eastwest;fontSize=16;" parent="WAhiKEp9OXw9OT3PCyFJ-74" vertex="1">
          <mxGeometry y="94" width="350" height="46" as="geometry" />
        </mxCell>
        <mxCell id="WAhiKEp9OXw9OT3PCyFJ-82" value="10.0.0.0/16" style="shape=partialRectangle;html=1;whiteSpace=wrap;connectable=0;strokeColor=inherit;overflow=hidden;fillColor=none;top=0;left=0;bottom=0;right=0;pointerEvents=1;fontSize=16;" parent="WAhiKEp9OXw9OT3PCyFJ-81" vertex="1">
          <mxGeometry width="180" height="46" as="geometry">
            <mxRectangle width="180" height="46" as="alternateBounds" />
          </mxGeometry>
        </mxCell>
        <mxCell id="WAhiKEp9OXw9OT3PCyFJ-83" value="Local" style="shape=partialRectangle;html=1;whiteSpace=wrap;connectable=0;strokeColor=inherit;overflow=hidden;fillColor=none;top=0;left=0;bottom=0;right=0;pointerEvents=1;fontSize=16;" parent="WAhiKEp9OXw9OT3PCyFJ-81" vertex="1">
          <mxGeometry x="180" width="170" height="46" as="geometry">
            <mxRectangle width="170" height="46" as="alternateBounds" />
          </mxGeometry>
        </mxCell>
        <mxCell id="WAhiKEp9OXw9OT3PCyFJ-84" value="" style="shape=table;startSize=0;container=1;collapsible=0;childLayout=tableLayout;fontSize=16;" parent="WAhiKEp9OXw9OT3PCyFJ-73" vertex="1">
          <mxGeometry y="192.17391304347825" width="350" height="102.44602698650654" as="geometry" />
        </mxCell>
        <mxCell id="WAhiKEp9OXw9OT3PCyFJ-85" value="" style="shape=tableRow;horizontal=0;startSize=0;swimlaneHead=0;swimlaneBody=0;strokeColor=inherit;top=0;left=0;bottom=0;right=0;collapsible=0;dropTarget=0;fillColor=none;points=[[0,0.5],[1,0.5]];portConstraint=eastwest;fontSize=16;" parent="WAhiKEp9OXw9OT3PCyFJ-84" vertex="1">
          <mxGeometry width="350" height="51" as="geometry" />
        </mxCell>
        <mxCell id="WAhiKEp9OXw9OT3PCyFJ-86" value="&lt;font style=&quot;font-size: 16px;&quot;&gt;&lt;b style=&quot;font-size: 16px;&quot;&gt;Destination&lt;/b&gt;&lt;/font&gt;" style="shape=partialRectangle;html=1;whiteSpace=wrap;connectable=0;strokeColor=inherit;overflow=hidden;fillColor=none;top=0;left=0;bottom=0;right=0;pointerEvents=1;fontSize=16;" parent="WAhiKEp9OXw9OT3PCyFJ-85" vertex="1">
          <mxGeometry width="175" height="51" as="geometry">
            <mxRectangle width="175" height="51" as="alternateBounds" />
          </mxGeometry>
        </mxCell>
        <mxCell id="WAhiKEp9OXw9OT3PCyFJ-87" value="&lt;b style=&quot;font-size: 16px;&quot;&gt;&lt;font style=&quot;font-size: 16px;&quot;&gt;Target&lt;/font&gt;&lt;/b&gt;" style="shape=partialRectangle;html=1;whiteSpace=wrap;connectable=0;strokeColor=inherit;overflow=hidden;fillColor=none;top=0;left=0;bottom=0;right=0;pointerEvents=1;fontSize=16;" parent="WAhiKEp9OXw9OT3PCyFJ-85" vertex="1">
          <mxGeometry x="175" width="175" height="51" as="geometry">
            <mxRectangle width="175" height="51" as="alternateBounds" />
          </mxGeometry>
        </mxCell>
        <mxCell id="WAhiKEp9OXw9OT3PCyFJ-88" value="" style="shape=tableRow;horizontal=0;startSize=0;swimlaneHead=0;swimlaneBody=0;strokeColor=inherit;top=0;left=0;bottom=0;right=0;collapsible=0;dropTarget=0;fillColor=none;points=[[0,0.5],[1,0.5]];portConstraint=eastwest;fontSize=16;" parent="WAhiKEp9OXw9OT3PCyFJ-84" vertex="1">
          <mxGeometry y="51" width="350" height="51" as="geometry" />
        </mxCell>
        <mxCell id="WAhiKEp9OXw9OT3PCyFJ-89" value="10.0.0.0/16" style="shape=partialRectangle;html=1;whiteSpace=wrap;connectable=0;strokeColor=inherit;overflow=hidden;fillColor=none;top=0;left=0;bottom=0;right=0;pointerEvents=1;fontSize=16;" parent="WAhiKEp9OXw9OT3PCyFJ-88" vertex="1">
          <mxGeometry width="175" height="51" as="geometry">
            <mxRectangle width="175" height="51" as="alternateBounds" />
          </mxGeometry>
        </mxCell>
        <mxCell id="WAhiKEp9OXw9OT3PCyFJ-90" value="Local" style="shape=partialRectangle;html=1;whiteSpace=wrap;connectable=0;strokeColor=inherit;overflow=hidden;fillColor=none;top=0;left=0;bottom=0;right=0;pointerEvents=1;fontSize=16;" parent="WAhiKEp9OXw9OT3PCyFJ-88" vertex="1">
          <mxGeometry x="175" width="175" height="51" as="geometry">
            <mxRectangle width="175" height="51" as="alternateBounds" />
          </mxGeometry>
        </mxCell>
        <mxCell id="WAhiKEp9OXw9OT3PCyFJ-91" value="" style="shape=table;startSize=0;container=1;collapsible=0;childLayout=tableLayout;fontSize=16;" parent="WAhiKEp9OXw9OT3PCyFJ-73" vertex="1">
          <mxGeometry y="362.1739130434782" width="350" height="103.47826086956519" as="geometry" />
        </mxCell>
        <mxCell id="WAhiKEp9OXw9OT3PCyFJ-92" value="" style="shape=tableRow;horizontal=0;startSize=0;swimlaneHead=0;swimlaneBody=0;strokeColor=inherit;top=0;left=0;bottom=0;right=0;collapsible=0;dropTarget=0;fillColor=none;points=[[0,0.5],[1,0.5]];portConstraint=eastwest;fontSize=16;" parent="WAhiKEp9OXw9OT3PCyFJ-91" vertex="1">
          <mxGeometry width="350" height="52" as="geometry" />
        </mxCell>
        <mxCell id="WAhiKEp9OXw9OT3PCyFJ-93" value="&lt;b style=&quot;font-size: 16px;&quot;&gt;&lt;font style=&quot;font-size: 16px;&quot;&gt;Destination&lt;/font&gt;&lt;/b&gt;" style="shape=partialRectangle;html=1;whiteSpace=wrap;connectable=0;strokeColor=inherit;overflow=hidden;fillColor=none;top=0;left=0;bottom=0;right=0;pointerEvents=1;fontSize=16;" parent="WAhiKEp9OXw9OT3PCyFJ-92" vertex="1">
          <mxGeometry width="175" height="52" as="geometry">
            <mxRectangle width="175" height="52" as="alternateBounds" />
          </mxGeometry>
        </mxCell>
        <mxCell id="WAhiKEp9OXw9OT3PCyFJ-94" value="&lt;b style=&quot;font-size: 16px;&quot;&gt;&lt;font style=&quot;font-size: 16px;&quot;&gt;Target&lt;/font&gt;&lt;/b&gt;" style="shape=partialRectangle;html=1;whiteSpace=wrap;connectable=0;strokeColor=inherit;overflow=hidden;fillColor=none;top=0;left=0;bottom=0;right=0;pointerEvents=1;fontSize=16;" parent="WAhiKEp9OXw9OT3PCyFJ-92" vertex="1">
          <mxGeometry x="175" width="175" height="52" as="geometry">
            <mxRectangle width="175" height="52" as="alternateBounds" />
          </mxGeometry>
        </mxCell>
        <mxCell id="WAhiKEp9OXw9OT3PCyFJ-95" value="" style="shape=tableRow;horizontal=0;startSize=0;swimlaneHead=0;swimlaneBody=0;strokeColor=inherit;top=0;left=0;bottom=0;right=0;collapsible=0;dropTarget=0;fillColor=none;points=[[0,0.5],[1,0.5]];portConstraint=eastwest;fontSize=16;" parent="WAhiKEp9OXw9OT3PCyFJ-91" vertex="1">
          <mxGeometry y="52" width="350" height="51" as="geometry" />
        </mxCell>
        <mxCell id="WAhiKEp9OXw9OT3PCyFJ-96" value="10.0.0.0/16" style="shape=partialRectangle;html=1;whiteSpace=wrap;connectable=0;strokeColor=inherit;overflow=hidden;fillColor=none;top=0;left=0;bottom=0;right=0;pointerEvents=1;fontSize=16;" parent="WAhiKEp9OXw9OT3PCyFJ-95" vertex="1">
          <mxGeometry width="175" height="51" as="geometry">
            <mxRectangle width="175" height="51" as="alternateBounds" />
          </mxGeometry>
        </mxCell>
        <mxCell id="WAhiKEp9OXw9OT3PCyFJ-97" value="Local" style="shape=partialRectangle;html=1;whiteSpace=wrap;connectable=0;strokeColor=inherit;overflow=hidden;fillColor=none;top=0;left=0;bottom=0;right=0;pointerEvents=1;fontSize=16;" parent="WAhiKEp9OXw9OT3PCyFJ-95" vertex="1">
          <mxGeometry x="175" width="175" height="51" as="geometry">
            <mxRectangle width="175" height="51" as="alternateBounds" />
          </mxGeometry>
        </mxCell>
        <mxCell id="WAhiKEp9OXw9OT3PCyFJ-98" value="&lt;span style=&quot;font-size: 16px;&quot;&gt;s3878023-rtb-private2&lt;/span&gt;" style="text;html=1;align=center;verticalAlign=middle;whiteSpace=wrap;rounded=0;fontSize=16;" parent="WAhiKEp9OXw9OT3PCyFJ-73" vertex="1">
          <mxGeometry x="56.75" y="332.17478260869564" width="236.5" height="30" as="geometry" />
        </mxCell>
        <mxCell id="WAhiKEp9OXw9OT3PCyFJ-99" value="&lt;span style=&quot;font-size: 16px;&quot;&gt;s3878023-rtb-public&lt;/span&gt;" style="text;html=1;align=center;verticalAlign=middle;whiteSpace=wrap;rounded=0;fontSize=16;" parent="1" vertex="1">
          <mxGeometry x="-293.25" y="129.57" width="236.5" height="30" as="geometry" />
        </mxCell>
        <mxCell id="WAhiKEp9OXw9OT3PCyFJ-100" value="&lt;span style=&quot;font-size: 16px;&quot;&gt;s3878023-rtb-private1&lt;/span&gt;" style="text;html=1;align=center;verticalAlign=middle;whiteSpace=wrap;rounded=0;fontSize=16;" parent="1" vertex="1">
          <mxGeometry x="-293.25" y="320" width="236.5" height="30" as="geometry" />
        </mxCell>
      </root>
    </mxGraphModel>
  </diagram>
</mxfile>
